<?xml version="1.0" encoding="UTF-8" standalone="no"?>
<!DOCTYPE svg PUBLIC "-//W3C//DTD SVG 1.1//EN" "http://www.w3.org/Graphics/SVG/1.1/DTD/svg11.dtd">
<svg width="100%" height="100%" viewBox="0 0 860 860" version="1.1" xmlns="http://www.w3.org/2000/svg" xmlns:xlink="http://www.w3.org/1999/xlink" xml:space="preserve" xmlns:serif="http://www.serif.com/" style="fill-rule:evenodd;clip-rule:evenodd;stroke-linejoin:round;stroke-miterlimit:2;">
    <g transform="matrix(1,0,0,1,-110,-110)">
        <g>
            <g transform="matrix(1.96009,0,0,1.96009,-569.231,-478.43)">
                <path d="M565.908,300.206C686.986,300.206 785.286,398.505 785.286,519.583C785.286,640.661 686.986,738.961 565.908,738.961C444.83,738.961 346.531,640.661 346.531,519.583C346.531,398.505 444.83,300.206 565.908,300.206ZM565.908,327.84C460.083,327.84 374.165,413.757 374.165,519.583C374.165,625.409 460.083,711.326 565.908,711.326C671.734,711.326 757.651,625.409 757.651,519.583C757.651,413.757 671.734,327.84 565.908,327.84Z" style="fill:#fff;"/>
            </g>
            <path d="M432.402,552.189L147.299,552.189L147.299,536.189L156.531,536.189C157.051,535.128 157.662,533.888 158.359,532.484C171.843,505.323 217.9,416.299 265.711,364.585C287.792,340.701 310.697,324.95 330.897,324.273C357.378,323.387 380.839,335.045 401.789,355.748C431.195,384.808 455.769,432.187 477.591,485.18C477.681,485.4 477.762,485.621 477.832,485.844C482.337,484.762 487.038,484.189 491.873,484.189C522.275,484.189 547.427,506.851 551.343,536.189L762.462,536.189C762.462,535.267 762.616,534.329 762.941,533.41C803.077,419.961 834.947,300.421 848.902,255.982C850.28,251.594 846.962,268.783 851.35,270.161C855.738,271.539 866.181,256.587 864.803,260.975C850.933,305.143 819.391,423.34 779.634,536.189L946.87,536.189L946.87,552.189L773.4,552.189C773.4,553.134 773.239,554.094 772.899,555.032C746.523,627.719 716.855,696.292 686.591,739.551C673.881,757.72 660.953,771.53 648.185,779.751C638.67,785.877 629.133,789.023 619.731,789.023C600.466,789.023 582.464,774.696 566.219,749.376C544.486,715.501 524.683,661.597 503.974,603.589C503.905,603.395 503.843,603.2 503.789,603.004C499.937,603.781 495.952,604.189 491.873,604.189C461.47,604.189 436.318,581.528 432.402,552.189ZM462.365,491.945C462.3,491.808 462.238,491.668 462.179,491.526C441.321,440.872 418.182,395.38 390.073,367.602C372.679,350.413 353.442,340.195 331.455,340.931C314.608,341.495 296.364,355.98 277.948,375.899C233.261,424.236 190.268,506.043 175.137,536.189L432.402,536.189C434.937,517.198 446.37,501.005 462.365,491.945ZM756.198,552.189L551.343,552.189C548.708,571.929 536.46,588.646 519.468,597.472C519.541,597.64 519.608,597.811 519.671,597.986C539.885,654.611 559.032,707.309 580.247,740.376C592.641,759.693 605.033,772.356 619.731,772.356C627.97,772.356 636.187,768.467 644.533,761.887C654.029,754.4 663.492,743.495 672.935,729.997C702.156,688.227 730.65,622.266 756.198,552.189ZM445.045,552.189C448.852,574.602 468.383,591.689 491.873,591.689C497.392,591.689 502.693,590.746 507.622,589.012C523.672,583.365 535.787,569.336 538.701,552.189C539.142,549.588 539.373,546.916 539.373,544.189C539.373,541.463 539.142,538.791 538.701,536.189C534.893,513.777 515.362,496.689 491.873,496.689C485.773,496.689 479.941,497.842 474.582,499.94C459.301,505.922 447.864,519.597 445.045,536.189C444.603,538.791 444.373,541.463 444.373,544.189C444.373,546.916 444.603,549.588 445.045,552.189Z" style="fill:#fff;"/>
        </g>
    </g>
</svg>
